<?xml version="1.0" encoding="UTF-8"?>
<svg width="64" height="64" viewBox="0 0 100 100" fill="currentColor" xmlns="http://www.w3.org/2000/svg" data-fg-d3bl0="0.8:71.2823:/src/app/App.tsx:213:25:8352:36:e:ZenIcon::::::B7z6" data-fgid-d3bl0=":r2qk:" data-fg-bufm0=":0:/src/app/components/icons/ZenIcon.tsx:954:5:42978:294:e:svg:x:1" data-fgid-bufm0=":r2ql:" data-fg-callsite-d3bl0=""><path d="M 20 81.4 Q 50 85.2 80 81.4 A 1.4 1.4 0 0 1 80 78.6 Q 50 79.2 20 78.6 A 1.4 1.4 0 0 1 20 81.4 Z" fill-rule="evenodd" data-fg-bufm2=":0:/src/app/components/icons/ZenIcon.tsx:964:9:43210:41:e:path"></path><path d="M 53.5 21.4 Q 65 24.09 76.5 21.4 A 1.4 1.4 0 0 1 76.5 18.6 Q 65 18.09 53.5 18.6 A 1.4 1.4 0 0 1 53.5 21.4 Z M 73.6 18.5 Q 69.71 50 73.6 81.5 A 1.4 1.4 0 0 1 76.4 81.5 Q 75.71 50 76.4 18.5 A 1.4 1.4 0 0 1 73.6 18.5 Z M 76.5 78.6 Q 65 75.91 53.5 78.6 A 1.4 1.4 0 0 1 53.5 81.4 Q 65 81.91 76.5 81.4 A 1.4 1.4 0 0 1 76.5 78.6 Z M 56.4 81.5 Q 60.29 50 56.4 18.5 A 1.4 1.4 0 0 1 53.6 18.5 Q 54.29 50 53.6 81.5 A 1.4 1.4 0 0 1 56.4 81.5 Z" fill-rule="evenodd" data-fg-bufm2=":0:/src/app/components/icons/ZenIcon.tsx:964:9:43210:41:e:path"></path></svg>