<?xml version="1.0" encoding="UTF-8"?>
<svg width="64" height="64" viewBox="0 0 100 100" fill="currentColor" xmlns="http://www.w3.org/2000/svg" data-fg-d3bl0="0.8:71.2823:/src/app/App.tsx:213:25:8352:36:e:ZenIcon::::::B7z6" data-fgid-d3bl0=":r2qk:" data-fg-bufm0=":0:/src/app/components/icons/ZenIcon.tsx:954:5:42978:294:e:svg:x:1" data-fgid-bufm0=":r2ql:" data-fg-callsite-d3bl0=""><path d="M 28.5 46.4 Q 50 49.69 71.5 46.4 A 1.4 1.4 0 0 1 71.5 43.6 Q 50 43.69 28.5 43.6 A 1.4 1.4 0 0 1 28.5 46.4 Z M 68.6 43.5 Q 65.46 62.5 68.6 81.5 A 1.4 1.4 0 0 1 71.4 81.5 Q 71.46 62.5 71.4 43.5 A 1.4 1.4 0 0 1 68.6 43.5 Z M 71.5 78.6 Q 50 75.30999999999999 28.5 78.6 A 1.4 1.4 0 0 1 28.5 81.4 Q 50 81.30999999999999 71.5 81.4 A 1.4 1.4 0 0 1 71.5 78.6 Z M 31.4 81.5 Q 34.54 62.5 31.4 43.5 A 1.4 1.4 0 0 1 28.6 43.5 Q 28.54 62.5 28.6 81.5 A 1.4 1.4 0 0 1 31.4 81.5 Z" fill-rule="evenodd" data-fg-bufm2=":0:/src/app/components/icons/ZenIcon.tsx:964:9:43210:41:e:path"></path><path d="M 39.4 45 Q 41.85 37.5 39.4 30 A 1.4 1.4 0 0 1 36.6 30 Q 35.85 37.5 36.6 45 A 1.4 1.4 0 0 1 39.4 45 Z" fill-rule="evenodd" data-fg-bufm2=":0:/src/app/components/icons/ZenIcon.tsx:964:9:43210:41:e:path"></path><path d="M 38 31.4 Q 50 34.12 62 31.4 A 1.4 1.4 0 0 1 62 28.6 Q 50 28.119999999999997 38 28.6 A 1.4 1.4 0 0 1 38 31.4 Z" fill-rule="evenodd" data-fg-bufm2=":0:/src/app/components/icons/ZenIcon.tsx:964:9:43210:41:e:path"></path><path d="M 60.6 30 Q 58.15 37.5 60.6 45 A 1.4 1.4 0 0 1 63.4 45 Q 64.14999999999999 37.5 63.4 30 A 1.4 1.4 0 0 1 60.6 30 Z" fill-rule="evenodd" data-fg-bufm2=":0:/src/app/components/icons/ZenIcon.tsx:964:9:43210:41:e:path"></path><path d="M 40 21.05 Q 50 23.150000000000002 60 21.05 A 1.0499999999999998 1.0499999999999998 0 0 1 60 18.95 Q 50 18.650000000000002 40 18.95 A 1.0499999999999998 1.0499999999999998 0 0 1 40 21.05 Z" fill-rule="evenodd" data-fg-bufm2=":0:/src/app/components/icons/ZenIcon.tsx:964:9:43210:41:e:path"></path><path d="M 48.95 15 Q 47.150000000000006 20 48.95 25 A 1.0499999999999998 1.0499999999999998 0 0 1 51.05 25 Q 51.650000000000006 20 51.05 15 A 1.0499999999999998 1.0499999999999998 0 0 1 48.95 15 Z" fill-rule="evenodd" data-fg-bufm2=":0:/src/app/components/icons/ZenIcon.tsx:964:9:43210:41:e:path"></path></svg>