<?xml version="1.0" encoding="UTF-8"?>
<svg width="64" height="64" viewBox="0 0 100 100" fill="currentColor" xmlns="http://www.w3.org/2000/svg" data-fg-d3bl0="0.8:71.2823:/src/app/App.tsx:213:25:8352:36:e:ZenIcon::::::B7z6" data-fgid-d3bl0=":r2qk:" data-fg-bufm0=":0:/src/app/components/icons/ZenIcon.tsx:954:5:42978:294:e:svg:x:1" data-fgid-bufm0=":r2ql:" data-fg-callsite-d3bl0=""><path d="M 21.4 40 Q 24 30 21.4 20 A 1.4 1.4 0 0 1 18.6 20 Q 18 30 18.6 40 A 1.4 1.4 0 0 1 21.4 40 Z" fill-rule="evenodd" data-fg-bufm2=":0:/src/app/components/icons/ZenIcon.tsx:964:9:43210:41:e:path"></path><path d="M 20 21.4 Q 30 24 40 21.4 A 1.4 1.4 0 0 1 40 18.6 Q 30 18 20 18.6 A 1.4 1.4 0 0 1 20 21.4 Z" fill-rule="evenodd" data-fg-bufm2=":0:/src/app/components/icons/ZenIcon.tsx:964:9:43210:41:e:path"></path><path d="M 81.4 40 Q 84 30 81.4 20 A 1.4 1.4 0 0 1 78.6 20 Q 78 30 78.6 40 A 1.4 1.4 0 0 1 81.4 40 Z" fill-rule="evenodd" data-fg-bufm2=":0:/src/app/components/icons/ZenIcon.tsx:964:9:43210:41:e:path"></path><path d="M 80 18.6 Q 70 15.999999999999998 60 18.6 A 1.4 1.4 0 0 1 60 21.4 Q 70 22 80 21.4 A 1.4 1.4 0 0 1 80 18.6 Z" fill-rule="evenodd" data-fg-bufm2=":0:/src/app/components/icons/ZenIcon.tsx:964:9:43210:41:e:path"></path><path d="M 18.6 60 Q 15.999999999999998 70 18.6 80 A 1.4 1.4 0 0 1 21.4 80 Q 22 70 21.4 60 A 1.4 1.4 0 0 1 18.6 60 Z" fill-rule="evenodd" data-fg-bufm2=":0:/src/app/components/icons/ZenIcon.tsx:964:9:43210:41:e:path"></path><path d="M 20 81.4 Q 30 84 40 81.4 A 1.4 1.4 0 0 1 40 78.6 Q 30 78 20 78.6 A 1.4 1.4 0 0 1 20 81.4 Z" fill-rule="evenodd" data-fg-bufm2=":0:/src/app/components/icons/ZenIcon.tsx:964:9:43210:41:e:path"></path><path d="M 78.6 60 Q 76 70 78.6 80 A 1.4 1.4 0 0 1 81.4 80 Q 82 70 81.4 60 A 1.4 1.4 0 0 1 78.6 60 Z" fill-rule="evenodd" data-fg-bufm2=":0:/src/app/components/icons/ZenIcon.tsx:964:9:43210:41:e:path"></path><path d="M 80 78.6 Q 70 76 60 78.6 A 1.4 1.4 0 0 1 60 81.4 Q 70 82 80 81.4 A 1.4 1.4 0 0 1 80 78.6 Z" fill-rule="evenodd" data-fg-bufm2=":0:/src/app/components/icons/ZenIcon.tsx:964:9:43210:41:e:path"></path></svg>