<?xml version="1.0" encoding="UTF-8"?>
<svg width="64" height="64" viewBox="0 0 100 100" fill="currentColor" xmlns="http://www.w3.org/2000/svg" data-fg-d3bl0="0.8:71.2823:/src/app/App.tsx:213:25:8352:36:e:ZenIcon::::::B7z6" data-fgid-d3bl0=":r2qk:" data-fg-bufm0=":0:/src/app/components/icons/ZenIcon.tsx:954:5:42978:294:e:svg:x:1" data-fgid-bufm0=":r2ql:" data-fg-callsite-d3bl0=""><path d="M 25 31.4 Q 50 34.9 75 31.4 A 1.4 1.4 0 0 1 75 28.6 Q 50 28.9 25 28.6 A 1.4 1.4 0 0 1 25 31.4 Z" fill-rule="evenodd" data-fg-bufm2=":0:/src/app/components/icons/ZenIcon.tsx:964:9:43210:41:e:path"></path><path d="M 25 51.4 Q 50 54.9 75 51.4 A 1.4 1.4 0 0 1 75 48.6 Q 50 48.9 25 48.6 A 1.4 1.4 0 0 1 25 51.4 Z" fill-rule="evenodd" data-fg-bufm2=":0:/src/app/components/icons/ZenIcon.tsx:964:9:43210:41:e:path"></path><path d="M 25 71.4 Q 50 74.9 75 71.4 A 1.4 1.4 0 0 1 75 68.6 Q 50 68.9 25 68.6 A 1.4 1.4 0 0 1 25 71.4 Z" fill-rule="evenodd" data-fg-bufm2=":0:/src/app/components/icons/ZenIcon.tsx:964:9:43210:41:e:path"></path><path d="M 23.6 30 Q 20.400000000000002 50 23.6 70 A 1.4 1.4 0 0 1 26.4 70 Q 26.400000000000002 50 26.4 30 A 1.4 1.4 0 0 1 23.6 30 Z" fill-rule="evenodd" data-fg-bufm2=":0:/src/app/components/icons/ZenIcon.tsx:964:9:43210:41:e:path"></path><path d="M 73.6 30 Q 70.39999999999999 50 73.6 70 A 1.4 1.4 0 0 1 76.4 70 Q 76.39999999999999 50 76.4 30 A 1.4 1.4 0 0 1 73.6 30 Z" fill-rule="evenodd" data-fg-bufm2=":0:/src/app/components/icons/ZenIcon.tsx:964:9:43210:41:e:path"></path><path d="M 75 71.4 Q 80 73.7 85 71.4 A 1.4 1.4 0 0 1 85 68.6 Q 80 67.7 75 68.6 A 1.4 1.4 0 0 1 75 71.4 Z" fill-rule="evenodd" data-fg-bufm2=":0:/src/app/components/icons/ZenIcon.tsx:964:9:43210:41:e:path"></path><path d="M 86.4 70 Q 88.7 65 86.4 60 A 1.4 1.4 0 0 1 83.6 60 Q 82.7 65 83.6 70 A 1.4 1.4 0 0 1 86.4 70 Z" fill-rule="evenodd" data-fg-bufm2=":0:/src/app/components/icons/ZenIcon.tsx:964:9:43210:41:e:path"></path></svg>